<svg xmlns="http://www.w3.org/2000/svg" width="553" height="116.591" viewBox="0 0 553 116.591">
    <defs>
        <clipPath id="clip-path">
            <path id="Rectángulo_47" fill="none" d="M0 0H122.701V116.591H0z"/>
        </clipPath>
        <style>
            .cls-4,.cls-6{fill:none}.cls-2{fill:#fff}.cls-3{clip-path:url(#clip-path)}.cls-4,.cls-6{stroke:#0071bc;stroke-miterlimit:10}.cls-4{stroke-width:8px}.cls-5{fill:#2c75b4}
        </style>
    </defs>
    <g id="Grupo_45" transform="translate(-27 -6388)">
        <g id="Componente_5_1" transform="translate(27 6388)">
            <g id="Grupo_44">
                <path id="Trazado_10" d="M77.875 33.775V4H4v108.59h114.7V33.775z" class="cls-2"/>
                <g id="Grupo_7">
                    <g id="Grupo_6" class="cls-3">
                        <path id="Trazado_11" d="M77.433 33.808V4H4v108.709h114.015v-78.9z" class="cls-4" transform="translate(.343 -.059)"/>
                    </g>
                </g>
                <path id="Rectángulo_48" d="M0 0H62.288V80.084H0z" class="cls-2" transform="translate(56.413 32.507)"/>
                <g id="Grupo_9">
                    <g id="Grupo_8" class="cls-3">
                        <path id="Rectángulo_49" d="M0 0H67.636V78.901H0z" class="cls-4" transform="translate(50.722 33.749)"/>
                    </g>
                </g>
                <path id="Rectángulo_51" d="M0 0H8.898V8.898H0z" class="cls-5" transform="translate(13.789 17.348)"/>
                <path id="Rectángulo_52" d="M0 0H8.898V8.898H0z" class="cls-6" transform="translate(13.789 17.348)"/>
                <path id="Rectángulo_53" d="M0 0H8.898V8.898H0z" class="cls-5" transform="translate(13.789 34.583)"/>
                <path id="Rectángulo_54" d="M0 0H8.898V8.898H0z" class="cls-6" transform="translate(13.789 34.583)"/>
                <path id="Rectángulo_55" d="M0 0H8.898V8.898H0z" class="cls-5" transform="translate(13.789 53.847)"/>
                <path id="Rectángulo_56" d="M0 0H8.898V8.898H0z" class="cls-6" transform="translate(13.789 53.847)"/>
                <path id="Rectángulo_57" d="M0 0H8.898V8.898H0z" class="cls-5" transform="translate(13.789 73.111)"/>
                <path id="Rectángulo_58" d="M0 0H8.898V8.898H0z" class="cls-6" transform="translate(13.789 73.111)"/>
                <path id="Rectángulo_59" d="M0 0H8.898V8.898H0z" class="cls-5" transform="translate(34.528 34.583)"/>
                <path id="Rectángulo_60" d="M0 0H8.898V8.898H0z" class="cls-6" transform="translate(34.528 34.583)"/>
                <path id="Rectángulo_61" d="M0 0H8.898V8.898H0z" class="cls-5" transform="translate(34.528 53.847)"/>
                <path id="Rectángulo_62" d="M0 0H8.898V8.898H0z" class="cls-6" transform="translate(34.528 53.847)"/>
                <path id="Rectángulo_63" d="M0 0H8.898V8.898H0z" class="cls-5" transform="translate(34.528 73.111)"/>
                <path id="Rectángulo_64" d="M0 0H8.898V8.898H0z" class="cls-6" transform="translate(34.528 73.111)"/>
                <path id="Rectángulo_65" d="M0 0H8.898V8.898H0z" class="cls-5" transform="translate(13.789 92.125)"/>
                <path id="Rectángulo_66" d="M0 0H8.898V8.898H0z" class="cls-6" transform="translate(13.789 92.125)"/>
                <path id="Rectángulo_67" d="M0 0H8.898V8.898H0z" class="cls-5" transform="translate(34.528 92.125)"/>
                <path id="Rectángulo_68" d="M0 0H8.898V8.898H0z" class="cls-6" transform="translate(34.528 92.125)"/>
                <path id="Rectángulo_69" d="M0 0H8.898V8.898H0z" class="cls-5" transform="translate(34.528 17.348)"/>
                <path id="Rectángulo_70" d="M0 0H8.898V8.898H0z" class="cls-6" transform="translate(34.528 17.348)"/>
                <path id="Rectángulo_71" d="M0 0H8.898V8.898H0z" class="cls-5" transform="translate(53.984 17.348)"/>
                <path id="Rectángulo_72" d="M0 0H8.898V8.898H0z" class="cls-6" transform="translate(53.984 17.348)"/>
                <path id="Rectángulo_73" d="M0 0H8.898V8.898H0z" class="cls-5" transform="translate(63.711 45.09)"/>
                <path id="Rectángulo_74" d="M0 0H8.898V8.898H0z" class="cls-6" transform="translate(63.711 45.09)"/>
                <path id="Rectángulo_75" d="M0 0H8.898V8.898H0z" class="cls-5" transform="translate(63.711 66.105)"/>
                <path id="Rectángulo_76" d="M0 0H8.898V8.898H0z" class="cls-6" transform="translate(63.711 66.105)"/>
                <path id="Rectángulo_77" d="M0 0H8.898V8.898H0z" class="cls-5" transform="translate(63.711 87.12)"/>
                <path id="Rectángulo_78" d="M0 0H8.898V8.898H0z" class="cls-6" transform="translate(63.711 87.12)"/>
                <path id="Rectángulo_79" d="M0 0H8.898V8.898H0z" class="cls-5" transform="translate(81.221 45.09)"/>
                <path id="Rectángulo_80" d="M0 0H8.898V8.898H0z" class="cls-6" transform="translate(81.221 45.09)"/>
                <path id="Rectángulo_81" d="M0 0H8.898V8.898H0z" class="cls-5" transform="translate(81.221 66.105)"/>
                <path id="Rectángulo_82" d="M0 0H8.898V8.898H0z" class="cls-6" transform="translate(81.221 66.105)"/>
                <path id="Rectángulo_83" d="M0 0H8.898V8.898H0z" class="cls-5" transform="translate(81.221 87.12)"/>
                <path id="Rectángulo_84" d="M0 0H8.898V8.898H0z" class="cls-6" transform="translate(81.221 87.12)"/>
                <path id="Rectángulo_85" d="M0 0H8.898V8.898H0z" class="cls-5" transform="translate(98.235 45.09)"/>
                <path id="Rectángulo_86" d="M0 0H8.898V8.898H0z" class="cls-6" transform="translate(98.235 45.09)"/>
                <path id="Rectángulo_87" d="M0 0H8.898V8.898H0z" class="cls-5" transform="translate(98.235 66.105)"/>
                <path id="Rectángulo_88" d="M0 0H8.898V8.898H0z" class="cls-6" transform="translate(98.235 66.105)"/>
                <path id="Rectángulo_89" d="M0 0H8.898V8.898H0z" class="cls-5" transform="translate(98.235 87.12)"/>
                <path id="Rectángulo_90" d="M0 0H8.898V8.898H0z" class="cls-6" transform="translate(98.235 87.12)"/>
            </g>
            <text id="Hidrofachadas_S.A.S" fill="#fff" font-family="Roboto-Bold, Roboto" font-size="45px" font-weight="700" transform="translate(339 56)">
                <tspan x="-209.377" y="0">Hidrofachadas S.A.S</tspan>
            </text>
            <path id="Trazado_52" fill="none" stroke="#0862dd" stroke-width="5px" d="M0 0h422.5" transform="translate(130.5 73.5)"/>
        </g>
    </g>
</svg>
