<svg id="Grupo_10" data-name="Grupo 10" xmlns="http://www.w3.org/2000/svg" xmlns:xlink="http://www.w3.org/1999/xlink" width="122.701" height="116.591" viewBox="0 0 122.701 116.591">
  <defs>
    <style>
      .cls-1, .cls-4, .cls-6 {
        fill: none;
      }

      .cls-2 {
        fill: #fff;
      }

      .cls-3 {
        clip-path: url(#clip-path);
      }

      .cls-4, .cls-6 {
        stroke: #0071bc;
        stroke-miterlimit: 10;
      }

      .cls-4 {
        stroke-width: 8px;
      }

      .cls-5 {
        fill: #2c75b4;
      }
    </style>
    <clipPath id="clip-path">
      <rect id="Rectángulo_47" data-name="Rectángulo 47" class="cls-1" width="122.701" height="116.591"/>
    </clipPath>
  </defs>
  <path id="Trazado_10" data-name="Trazado 10" class="cls-2" d="M77.875,33.775V4H4v108.59H118.7V33.775Z"/>
  <g id="Grupo_7" data-name="Grupo 7" transform="translate(0 0)">
    <g id="Grupo_6" data-name="Grupo 6" class="cls-3">
      <path id="Trazado_11" data-name="Trazado 11" class="cls-4" d="M77.433,33.808V4H4V112.709H118.015v-78.9Z" transform="translate(0.343 -0.059)"/>
    </g>
  </g>
  <rect id="Rectángulo_48" data-name="Rectángulo 48" class="cls-2" width="62.288" height="80.084" transform="translate(56.413 32.507)"/>
  <g id="Grupo_9" data-name="Grupo 9" transform="translate(0 0)">
    <g id="Grupo_8" data-name="Grupo 8" class="cls-3">
      <rect id="Rectángulo_49" data-name="Rectángulo 49" class="cls-4" width="67.636" height="78.901" transform="translate(50.722 33.749)"/>
    </g>
  </g>
  <rect id="Rectángulo_51" data-name="Rectángulo 51" class="cls-5" width="8.898" height="8.898" transform="translate(13.789 17.348)"/>
  <rect id="Rectángulo_52" data-name="Rectángulo 52" class="cls-6" width="8.898" height="8.898" transform="translate(13.789 17.348)"/>
  <rect id="Rectángulo_53" data-name="Rectángulo 53" class="cls-5" width="8.898" height="8.898" transform="translate(13.789 34.583)"/>
  <rect id="Rectángulo_54" data-name="Rectángulo 54" class="cls-6" width="8.898" height="8.898" transform="translate(13.789 34.583)"/>
  <rect id="Rectángulo_55" data-name="Rectángulo 55" class="cls-5" width="8.898" height="8.898" transform="translate(13.789 53.847)"/>
  <rect id="Rectángulo_56" data-name="Rectángulo 56" class="cls-6" width="8.898" height="8.898" transform="translate(13.789 53.847)"/>
  <rect id="Rectángulo_57" data-name="Rectángulo 57" class="cls-5" width="8.898" height="8.898" transform="translate(13.789 73.111)"/>
  <rect id="Rectángulo_58" data-name="Rectángulo 58" class="cls-6" width="8.898" height="8.898" transform="translate(13.789 73.111)"/>
  <rect id="Rectángulo_59" data-name="Rectángulo 59" class="cls-5" width="8.898" height="8.898" transform="translate(34.528 34.583)"/>
  <rect id="Rectángulo_60" data-name="Rectángulo 60" class="cls-6" width="8.898" height="8.898" transform="translate(34.528 34.583)"/>
  <rect id="Rectángulo_61" data-name="Rectángulo 61" class="cls-5" width="8.898" height="8.898" transform="translate(34.528 53.847)"/>
  <rect id="Rectángulo_62" data-name="Rectángulo 62" class="cls-6" width="8.898" height="8.898" transform="translate(34.528 53.847)"/>
  <rect id="Rectángulo_63" data-name="Rectángulo 63" class="cls-5" width="8.898" height="8.898" transform="translate(34.528 73.111)"/>
  <rect id="Rectángulo_64" data-name="Rectángulo 64" class="cls-6" width="8.898" height="8.898" transform="translate(34.528 73.111)"/>
  <rect id="Rectángulo_65" data-name="Rectángulo 65" class="cls-5" width="8.898" height="8.898" transform="translate(13.789 92.125)"/>
  <rect id="Rectángulo_66" data-name="Rectángulo 66" class="cls-6" width="8.898" height="8.898" transform="translate(13.789 92.125)"/>
  <rect id="Rectángulo_67" data-name="Rectángulo 67" class="cls-5" width="8.898" height="8.898" transform="translate(34.528 92.125)"/>
  <rect id="Rectángulo_68" data-name="Rectángulo 68" class="cls-6" width="8.898" height="8.898" transform="translate(34.528 92.125)"/>
  <rect id="Rectángulo_69" data-name="Rectángulo 69" class="cls-5" width="8.898" height="8.898" transform="translate(34.528 17.348)"/>
  <rect id="Rectángulo_70" data-name="Rectángulo 70" class="cls-6" width="8.898" height="8.898" transform="translate(34.528 17.348)"/>
  <rect id="Rectángulo_71" data-name="Rectángulo 71" class="cls-5" width="8.898" height="8.898" transform="translate(53.984 17.348)"/>
  <rect id="Rectángulo_72" data-name="Rectángulo 72" class="cls-6" width="8.898" height="8.898" transform="translate(53.984 17.348)"/>
  <rect id="Rectángulo_73" data-name="Rectángulo 73" class="cls-5" width="8.898" height="8.898" transform="translate(63.711 45.09)"/>
  <rect id="Rectángulo_74" data-name="Rectángulo 74" class="cls-6" width="8.898" height="8.898" transform="translate(63.711 45.09)"/>
  <rect id="Rectángulo_75" data-name="Rectángulo 75" class="cls-5" width="8.898" height="8.898" transform="translate(63.711 66.105)"/>
  <rect id="Rectángulo_76" data-name="Rectángulo 76" class="cls-6" width="8.898" height="8.898" transform="translate(63.711 66.105)"/>
  <rect id="Rectángulo_77" data-name="Rectángulo 77" class="cls-5" width="8.898" height="8.898" transform="translate(63.711 87.12)"/>
  <rect id="Rectángulo_78" data-name="Rectángulo 78" class="cls-6" width="8.898" height="8.898" transform="translate(63.711 87.12)"/>
  <rect id="Rectángulo_79" data-name="Rectángulo 79" class="cls-5" width="8.898" height="8.898" transform="translate(81.221 45.09)"/>
  <rect id="Rectángulo_80" data-name="Rectángulo 80" class="cls-6" width="8.898" height="8.898" transform="translate(81.221 45.09)"/>
  <rect id="Rectángulo_81" data-name="Rectángulo 81" class="cls-5" width="8.898" height="8.898" transform="translate(81.221 66.105)"/>
  <rect id="Rectángulo_82" data-name="Rectángulo 82" class="cls-6" width="8.898" height="8.898" transform="translate(81.221 66.105)"/>
  <rect id="Rectángulo_83" data-name="Rectángulo 83" class="cls-5" width="8.898" height="8.898" transform="translate(81.221 87.12)"/>
  <rect id="Rectángulo_84" data-name="Rectángulo 84" class="cls-6" width="8.898" height="8.898" transform="translate(81.221 87.12)"/>
  <rect id="Rectángulo_85" data-name="Rectángulo 85" class="cls-5" width="8.898" height="8.898" transform="translate(98.235 45.09)"/>
  <rect id="Rectángulo_86" data-name="Rectángulo 86" class="cls-6" width="8.898" height="8.898" transform="translate(98.235 45.09)"/>
  <rect id="Rectángulo_87" data-name="Rectángulo 87" class="cls-5" width="8.898" height="8.898" transform="translate(98.235 66.105)"/>
  <rect id="Rectángulo_88" data-name="Rectángulo 88" class="cls-6" width="8.898" height="8.898" transform="translate(98.235 66.105)"/>
  <rect id="Rectángulo_89" data-name="Rectángulo 89" class="cls-5" width="8.898" height="8.898" transform="translate(98.235 87.12)"/>
  <rect id="Rectángulo_90" data-name="Rectángulo 90" class="cls-6" width="8.898" height="8.898" transform="translate(98.235 87.12)"/>
</svg>
